HIERARCHY
ROOT Hips
{
	OFFSET 0.000000 0.000000 0.000000
	CHANNELS 6 Xposition Yposition Zposition Zrotation Yrotation Xrotation 
	JOINT LHipJoint
	{
		OFFSET 0.000000 0.000000 0.000000
		CHANNELS 3 Zrotation Yrotation Xrotation
		JOINT LeftUpLeg
		{
			OFFSET 1.363060 -1.794630 0.839290
			CHANNELS 3 Zrotation Yrotation Xrotation
			JOINT LeftLeg
			{
				OFFSET 2.448110 -6.726130 0.000000
				CHANNELS 3 Zrotation Yrotation Xrotation
				JOINT LeftFoot
				{
					OFFSET 2.562200 -7.039590 0.000000
					CHANNELS 3 Zrotation Yrotation Xrotation
					JOINT LeftToeBase
					{
						OFFSET 0.157640 -0.433110 2.322550
						CHANNELS 3 Zrotation Yrotation Xrotation
						End Site
						{
							OFFSET 0.000000 0.000000 0.000000
						}
					}
				}
			}
		}
	}
	JOINT RHipJoint
	{
		OFFSET 0.000000 0.000000 0.000000
		CHANNELS 3 Zrotation Yrotation Xrotation
		JOINT RightUpLeg
		{
			OFFSET -1.305520 -1.794630 0.839290
			CHANNELS 3 Zrotation Yrotation Xrotation
			JOINT RightLeg
			{
				OFFSET -2.542530 -6.985550 0.000000
				CHANNELS 3 Zrotation Yrotation Xrotation
				JOINT RightFoot
				{
					OFFSET -2.568260 -7.056230 0.000000
					CHANNELS 3 Zrotation Yrotation Xrotation
					JOINT RightToeBase
					{
						OFFSET -0.164730 -0.452590 2.363150
						CHANNELS 3 Zrotation Yrotation Xrotation
						End Site
						{
							OFFSET 0.000000 0.000000 0.000000
						}
					}
				}
			}
		}
	}
}
MOTION
Frames: 30
Frame Time: 0.008333
-19.007277 15.069443 -0.717003 -129.645890 85.911119 -94.356756 -7.900772 -2.578144 1.913545 -10.193525 -8.096180 -86.161591 -0.311076 4.317023 58.000420 2.371807 8.648502 -9.943190 0.320900 -0.000000 -13.088201 10.931482 -3.370188 -4.815898 11.701980 -12.891091 -17.506227 2.747369 -3.003838 42.410519 0.466553 7.281873 -10.303002 -0.332300 -0.000000 -81.601200
-18.816642 15.051732 -0.735897 -129.036593 85.743841 -93.849039 -7.905604 -2.647453 1.819415 -10.104275 -7.983553 -85.890273 -0.209825 4.374920 59.428558 2.431223 8.746349 -11.175363 0.080700 -0.000001 -12.082200 11.030014 -3.463052 -4.767894 11.557477 -12.930573 -17.302030 2.529747 -3.093727 43.032279 0.486494 7.102406 -8.229852 -0.138400 0.000001 -82.303200
-18.627758 15.035142 -0.754965 -128.767999 85.589854 -93.660752 -7.917732 -2.711873 1.745159 -9.999642 -7.927763 -85.581585 -0.114862 4.419243 60.768262 2.504161 8.897090 -12.440361 -0.169000 -0.000000 -11.358400 11.119794 -3.545524 -4.728646 11.448590 -12.982046 -17.248831 2.298908 -3.193594 43.841990 0.475393 6.784848 -6.188063 0.055800 0.000000 -82.384000
-18.441118 15.019880 -0.774025 -128.827798 85.450048 -93.779006 -7.937025 -2.772713 1.690230 -9.878165 -7.927117 -85.247452 -0.022891 4.451392 62.024056 2.589721 9.108205 -13.687228 -0.422600 0.000000 -10.933200 11.200051 -3.614539 -4.700635 11.377665 -13.049637 -17.351594 2.059361 -3.301074 44.844679 0.431171 6.302947 -4.246646 0.228400 -0.000001 -81.796999
-18.257106 15.006269 -0.792830 -129.192792 85.328132 -94.181439 -7.962236 -2.829227 1.652074 -9.748901 -7.974732 -84.895090 0.067083 4.473200 63.196439 2.685685 9.379023 -14.877177 -0.676300 0.000001 -10.794100 11.272068 -3.666616 -4.686804 11.340001 -13.142103 -17.614258 1.815201 -3.414517 46.043020 0.353432 5.634597 -2.467332 0.356299 0.000000 -80.568601
-18.076198 14.994551 -0.811223 -129.788296 85.222902 -94.795128 -7.991942 -2.880584 1.626337 -9.621342 -8.054957 -84.531080 0.154494 4.487034 64.284688 2.788349 9.698626 -15.985938 -0.927200 0.000000 -10.904900 11.336398 -3.699087 -4.687942 11.336188 -13.255830 -18.032555 1.571208 -3.531834 47.428691 0.242402 4.757187 -0.923228 0.416400 -0.000000 -78.743600
-17.899076 14.984989 -0.829346 -130.479860 85.124671 -95.489370 -8.025375 -2.927305 1.606690 -9.499043 -8.141638 -84.159792 0.237839 4.495636 65.288924 2.892696 10.046615 -17.004077 -1.173200 -0.000000 -11.215700 11.392258 -3.711313 -4.703010 11.377165 -13.374815 -18.592784 1.332096 -3.651092 48.982914 0.099076 3.653367 0.314446 0.391500 0.000000 -76.381400
-17.725812 14.977859 -0.847265 -131.141602 85.028382 -96.143719 -8.060817 -2.968269 1.586026 -9.392281 -8.209092 -83.779169 0.314117 4.501551 66.206563 2.993880 10.399599 -17.934775 -1.412600 -0.000000 -11.664300 11.441169 -3.702680 -4.730940 11.465256 -13.488638 -19.282398 1.100817 -3.771626 50.684869 -0.074786 2.322458 1.202774 0.276800 -0.000000 -73.595300
-17.556886 14.973483 -0.864820 -131.672517 84.936609 -96.662717 -8.094975 -2.999940 1.557218 -9.320517 -8.235897 -83.380868 0.379220 4.506751 67.031529 3.087882 10.735084 -18.788431 -1.644100 0.000000 -12.191200 11.487577 -3.671930 -4.770034 11.590183 -13.592314 -20.090848 0.879231 -3.893536 52.511990 -0.276800 0.784384 1.719742 0.082100 -0.000000 -70.500500
-17.392343 14.971923 -0.882441 -131.913742 84.837083 -96.893894 -8.127260 -3.023370 1.513180 -9.281636 -8.194240 -82.960871 0.430606 4.513291 67.765268 3.170547 11.028246 -19.584015 -1.867200 -0.000000 -12.740500 11.531459 -3.621138 -4.816634 11.763272 -13.663458 -20.997370 0.669280 -4.016244 54.430952 -0.504685 -0.932072 1.850509 -0.170300 -0.000000 -67.183200
-17.232003 14.973318 -0.900195 -131.775913 84.729832 -96.753021 -8.155698 -3.036582 1.448628 -9.283780 -8.067787 -82.510316 0.465426 4.522305 68.405677 3.239613 11.262277 -20.339800 -2.081600 0.000001 -13.268101 11.575776 -3.550917 -4.867333 11.977886 -13.692454 -21.988583 0.471747 -4.139817 56.411878 -0.754667 -2.775081 1.606573 -0.445700 -0.000001 -63.715900
-17.076137 14.977667 -0.918244 -131.192592 84.613607 -96.177730 -8.179434 -3.038555 1.360020 -9.328586 -7.845988 -82.022770 0.482167 4.534504 68.953956 3.294079 11.426778 -21.072654 -2.287000 -0.000000 -13.741200 11.621881 -3.462527 -4.918401 12.229540 -13.668757 -23.051447 0.287070 -4.264043 58.423698 -1.021557 -4.681363 1.013720 -0.703700 -0.000000 -60.142400
-16.924205 14.984907 -0.936682 -130.141295 84.489473 -95.147774 -8.198215 -3.028245 1.246173 -9.414754 -7.526555 -81.493727 0.480434 4.550049 69.412586 3.334300 11.519009 -21.794703 -2.483300 -0.000000 -14.140100 11.670429 -3.357099 -4.966338 12.510307 -13.586159 -24.176097 0.115381 -4.388587 60.437234 -1.298189 -6.578881 0.110734 -0.904301 -0.000000 -56.487300
-16.776233 14.994778 -0.955605 -128.639411 84.358393 -93.681027 -8.212680 -3.005558 1.108266 -9.536137 -7.115659 -80.924004 0.461389 4.568804 69.787661 3.361953 11.544365 -22.512644 -2.670200 0.000000 -14.456100 11.720524 -3.235892 -5.008290 12.813044 -13.441200 -25.356534 -0.043399 -4.513127 62.427519 -1.575567 -8.393605 -1.056130 -1.013900 0.000000 -52.753500
-16.631838 15.007187 -0.974940 -126.755665 84.227266 -91.844130 -8.223491 -2.969404 0.949889 -9.690004 -6.629174 -80.313770 0.426820 4.589780 70.082745 3.379920 11.516226 -23.224790 -2.847400 0.000000 -14.699800 11.771274 -3.099410 -5.041714 13.123209 -13.237141 -26.591252 -0.189534 -4.637183 64.371407 -1.843454 -10.055467 -2.429863 -1.011501 0.000000 -48.972100
-16.490586 15.021829 -0.994588 -124.574955 84.100112 -89.718279 -8.231884 -2.920530 0.776298 -9.867920 -6.088428 -79.669082 0.379852 4.611768 70.304934 3.391608 11.452518 -23.925152 -3.014700 -0.000000 -14.886500 11.820413 -2.948625 -5.064944 13.431320 -12.977882 -27.881660 -0.323251 -4.760466 66.250818 -2.091530 -11.505399 -3.953617 -0.891100 0.000000 -45.171100
-16.352399 15.038264 -1.014612 -122.196017 83.976237 -87.397570 -8.240565 -2.862511 0.593449 -10.054141 -5.516030 -78.999670 0.324689 4.633634 70.465530 3.400217 11.372302 -24.605761 -3.172800 -0.000000 -15.034500 11.863652 -2.785767 -5.077777 13.735831 -12.668191 -29.230311 -0.444500 -4.883084 68.052535 -2.310570 -12.699143 -5.575515 -0.661100 -0.000001 -41.360801
-16.216786 15.056351 -1.034657 -119.731382 83.865951 -84.988450 -8.249362 -2.795478 0.408354 -10.247432 -4.941472 -78.311677 0.264616 4.653200 70.568068 3.409574 11.298034 -25.253479 -3.322700 -0.000000 -15.176800 11.900165 -2.610697 -5.078802 14.021981 -12.316524 -30.644175 -0.553818 -5.004961 69.764836 -2.493327 -13.609571 -7.236716 -0.344801 0.000000 -37.634100
-16.083839 15.075645 -1.054711 -117.274185 83.767330 -82.578695 -8.260496 -2.724429 0.226355 -10.432808 -4.385866 -77.616024 0.203814 4.669293 70.624252 3.422054 11.246409 -25.859331 -3.466299 0.000000 -15.337300 11.926019 -2.425752 -5.068874 14.293656 -11.927692 -32.127406 -0.651334 -5.126579 71.380893 -2.635611 -14.228955 -8.892642 0.028000 -0.000000 -34.045700
-15.953305 15.095972 -1.074648 -114.900531 83.682738 -80.240122 -8.274645 -2.652303 0.052096 -10.603968 -3.868264 -76.920201 0.145230 4.680515 70.640264 3.439670 11.231458 -26.414849 -3.605400 -0.000000 -15.538900 11.939235 -2.232003 -5.047743 14.549201 -11.505393 -33.683561 -0.737768 -5.247994 72.894286 -2.736465 -14.568292 -10.499212 0.422900 0.000000 -30.692700
-15.825078 15.117031 -1.094455 -112.669933 83.609866 -78.029002 -8.293295 -2.583465 -0.112003 -10.751861 -3.399123 -76.230772 0.091165 4.686242 70.624043 3.463059 11.259658 -26.916798 -3.741800 -0.000000 -15.791100 11.937050 -2.031390 -5.015939 14.793744 -11.050573 -35.312905 -0.813865 -5.369315 74.300772 -2.798176 -14.654832 -12.024043 0.809001 0.000000 -27.654800
-15.699062 15.138705 -1.113972 -110.590981 83.549712 -75.952551 -8.315613 -2.518803 -0.265046 -10.877416 -2.982679 -75.551985 0.042440 4.686301 70.579274 3.492329 11.333191 -27.363012 -3.876500 -0.000000 -16.107800 11.919424 -1.823565 -4.972043 15.026480 -10.560177 -37.016027 -0.881066 -5.489933 75.597970 -2.825617 -14.527825 -13.442944 1.161800 0.000001 -25.001200
-15.575151 15.160830 -1.133195 -108.660819 83.497777 -74.008829 -8.342407 -2.460816 -0.408422 -10.977330 -2.613443 -74.886061 -0.000758 4.681386 70.510950 3.526225 11.446948 -27.755522 -4.009400 -0.000000 -16.493100 11.884688 -1.609713 -4.915527 15.252720 -10.029050 -38.786920 -0.940511 -5.608998 76.783246 -2.826126 -14.236942 -14.744617 1.467201 0.000000 -22.757600
-15.453421 15.183195 -1.152330 -106.888740 83.445285 -72.209866 -8.375772 -2.413640 -0.545508 -11.045517 -2.279357 -74.233035 -0.038911 4.672781 70.425780 3.562522 11.589394 -28.102804 -4.139899 -0.000000 -16.925101 11.829888 -1.392686 -4.847064 15.481983 -9.452206 -40.615197 -0.992541 -5.725795 77.852789 -2.808418 -13.835644 -15.930900 1.721400 0.000001 -20.906100
-15.333682 15.205704 -1.171379 -105.242700 83.388041 -70.527153 -8.415800 -2.377617 -0.679984 -11.085038 -1.966140 -73.590755 -0.073394 4.661916 70.326298 3.598998 11.748506 -28.410338 -4.266399 0.000000 -17.400800 11.754594 -1.173402 -4.765382 15.715420 -8.822961 -42.490192 -1.037696 -5.838773 78.803105 -2.781664 -13.377376 -17.009514 1.928200 -0.000000 -19.400200
-15.215791 15.228274 -1.190353 -103.701644 83.320755 -68.944225 -8.462999 -2.353552 -0.816137 -11.097398 -1.657262 -72.955497 -0.105764 4.650378 70.215547 3.633039 11.910146 -28.684688 -4.386400 0.000000 -17.908800 11.658067 -0.953663 -4.669966 15.954913 -8.136837 -44.398966 -1.075661 -5.946455 79.628522 -2.754770 -12.911513 -17.994442 2.096900 -0.000000 -18.168500
-15.099577 15.250790 -1.209297 -102.253967 83.238975 -67.454295 -8.517644 -2.341743 -0.957898 -11.085418 -1.338066 -72.322903 -0.137376 4.639573 70.097017 3.662255 12.061577 -28.931064 -4.497700 -0.000001 -18.440900 11.540089 -0.735694 -4.560454 16.200245 -7.391781 -46.327090 -1.105643 -6.047389 80.322273 -2.735447 -12.479356 -18.900379 2.238800 0.000001 -17.131700
-14.984780 15.273215 -1.228114 -100.899247 83.140897 -66.061225 -8.579541 -2.341877 -1.108155 -11.052287 -0.997522 -71.688857 -0.169370 4.630590 69.973737 3.684604 12.191921 -29.153007 -4.597600 0.000001 -18.994100 11.401053 -0.521865 -4.436881 16.449526 -6.589906 -48.260909 -1.126378 -6.140309 80.876093 -2.729777 -12.112299 -19.739928 2.365300 0.000000 -16.219100
-14.871067 15.295428 -1.246726 -99.651399 83.026358 -64.782062 -8.647930 -2.353041 -1.268612 -11.001738 -0.629322 -71.050119 -0.202341 4.624087 69.849116 3.698541 12.293427 -29.351121 -4.683800 0.000000 -19.568801 11.242190 -0.314648 -4.299698 16.699276 -5.737349 -50.187450 -1.136299 -6.224233 81.281144 -2.741825 -11.830344 -20.522005 2.485400 0.000000 -15.374900
-14.758038 15.317395 -1.264909 -98.531759 82.899228 -63.639567 -8.721064 -2.373106 -1.439382 -10.939458 -0.233639 -70.404815 -0.236594 4.620294 69.726501 3.703541 12.362490 -29.526665 -4.755200 0.000000 -20.145900 11.065884 -0.115956 -4.150194 16.943862 -4.846869 -52.097153 -1.133696 -6.298853 81.530134 -2.773256 -11.640127 -21.252720 2.605700 0.000000 -14.549800
